<svg width="21" height="20" viewBox="0 0 21 20" fill="none" xmlns="http://www.w3.org/2000/svg">
<path fill-rule="evenodd" clip-rule="evenodd" d="M5.70002 0.400024C5.38176 0.400024 5.07654 0.526453 4.8515 0.751496C4.62645 0.97654 4.50002 1.28176 4.50002 1.60002V2.80002H3.30002C2.6635 2.80002 2.05306 3.05288 1.60297 3.50297C1.15288 3.95306 0.900024 4.56351 0.900024 5.20002V17.2C0.900024 17.8365 1.15288 18.447 1.60297 18.8971C2.05306 19.3472 2.6635 19.6 3.30002 19.6H17.7C18.3365 19.6 18.947 19.3472 19.3971 18.8971C19.8472 18.447 20.1 17.8365 20.1 17.2V5.20002C20.1 4.56351 19.8472 3.95306 19.3971 3.50297C18.947 3.05288 18.3365 2.80002 17.7 2.80002H16.5V1.60002C16.5 1.28176 16.3736 0.97654 16.1486 0.751496C15.9235 0.526453 15.6183 0.400024 15.3 0.400024C14.9818 0.400024 14.6765 0.526453 14.4515 0.751496C14.2265 0.97654 14.1 1.28176 14.1 1.60002V2.80002H6.90002V1.60002C6.90002 1.28176 6.7736 0.97654 6.54855 0.751496C6.32351 0.526453 6.01828 0.400024 5.70002 0.400024ZM5.70002 6.40002C5.38176 6.40002 5.07654 6.52645 4.8515 6.7515C4.62645 6.97654 4.50002 7.28176 4.50002 7.60002C4.50002 7.91828 4.62645 8.22351 4.8515 8.44855C5.07654 8.6736 5.38176 8.80002 5.70002 8.80002H15.3C15.6183 8.80002 15.9235 8.6736 16.1486 8.44855C16.3736 8.22351 16.5 7.91828 16.5 7.60002C16.5 7.28176 16.3736 6.97654 16.1486 6.7515C15.9235 6.52645 15.6183 6.40002 15.3 6.40002H5.70002Z" fill="#057A55"/>
</svg>
